<svg width="64" height="64" viewBox="0 0 64 64" fill="none" xmlns="http://www.w3.org/2000/svg">
<rect width="64" height="64" rx="20" fill="url(#paint0_linear_576_29394)"/>
<rect width="64" height="64" rx="20" fill="url(#paint1_linear_576_29394)"/>
<rect width="64" height="64" rx="20" fill="url(#paint2_angular_576_29394)"/>
<path fill-rule="evenodd" clip-rule="evenodd" d="M16.0894 22.4443C16.0894 18.0261 19.6711 14.4443 24.0894 14.4443H39.7492C44.1675 14.4443 47.7492 18.0261 47.7492 22.4443V42.627C47.7492 47.0453 44.1675 50.627 39.7492 50.627H24.0894C19.6711 50.627 16.0894 47.0453 16.0894 42.627V22.4443ZM23.5127 42.8148C23.5127 42.373 23.8709 42.0148 24.3127 42.0148L39.937 42.0148C40.3789 42.0148 40.737 42.373 40.737 42.8148C40.737 43.2567 40.3789 43.6148 39.937 43.6148L24.3127 43.6148C23.8709 43.6148 23.5127 43.2567 23.5127 42.8148ZM39.5191 28.8356C39.251 31.734 37.3367 34.1552 34.7199 35.1555C35.569 33.631 36.137 31.3972 36.2304 28.8734L39.5191 28.8356ZM39.4981 27.2358C39.163 24.4256 37.2768 22.0916 34.7199 21.1142C35.5552 22.6139 36.1184 24.8 36.2255 27.2733L39.4981 27.2358ZM34.6247 27.2917C34.5333 25.3072 34.1245 23.5858 33.5593 22.3611C32.8527 20.8302 32.1991 20.6214 32.0378 20.6214C31.8766 20.6214 31.2229 20.8302 30.5163 22.3611C29.9455 23.598 29.5342 25.3415 29.4483 27.3511L34.6247 27.2917ZM29.4497 28.9512C29.5387 30.947 29.9485 32.6784 30.5163 33.9086C31.2229 35.4395 31.8766 35.6483 32.0378 35.6483C32.1991 35.6483 32.8527 35.4395 33.5593 33.9086C34.1327 32.6662 34.5451 30.9126 34.6285 28.8918L29.4497 28.9512ZM27.849 28.9696C27.9531 31.4539 28.5174 33.6503 29.3557 35.1554C26.7908 34.1749 24.9008 31.8292 24.5745 29.0071L27.849 28.9696ZM27.8462 27.3695C27.9426 24.8567 28.5096 22.6334 29.3557 21.1143C26.7471 22.1115 24.8366 24.5208 24.5592 27.4072L27.8462 27.3695ZM22.9244 28.1349C22.9244 33.1681 27.0046 37.2483 32.0378 37.2483H32.0379C37.0711 37.2483 41.1514 33.1681 41.1514 28.1349C41.1514 23.1016 37.0711 19.0214 32.0379 19.0214C27.0046 19.0214 22.9244 23.1016 22.9244 28.1349Z" fill="white"/>
<defs>
<linearGradient id="paint0_linear_576_29394" x1="0" y1="0" x2="0" y2="64" gradientUnits="userSpaceOnUse">
<stop offset="0.244792" stop-color="#28A745"/>
<stop offset="1" stop-color="#1E7B33"/>
</linearGradient>
<linearGradient id="paint1_linear_576_29394" x1="0" y1="0" x2="0" y2="64" gradientUnits="userSpaceOnUse">
<stop offset="0.244792" stop-color="#0077DB"/>
<stop offset="1" stop-color="#00569E"/>
</linearGradient>
<radialGradient id="paint2_angular_576_29394" cx="0" cy="0" r="1" gradientUnits="userSpaceOnUse" gradientTransform="translate(32 32) rotate(-180) scale(32 36.7622)">
<stop stop-color="white" stop-opacity="0.3"/>
<stop offset="0.598958" stop-color="white" stop-opacity="0"/>
</radialGradient>
</defs>
</svg>
